{"title":"Fur.TV.2008.S01.x264.Iou1","uid":9101474,"size":1457410050,"categoryP":"video","categoryS":"tv_shows","magnet":"?xt=urn:btih:0ce4072adecbb41e180f6e9f5239f33c2b53f7b3&amp;dn=Fur.TV.2008.S01.x264.Iou1&amp;tr=udp%3A%2F%2Ftracker.openbittorrent.com%3A80&amp;tr=udp%3A%2F%2Fopen.demonii.com%3A1337&amp;tr=udp%3A%2F%2Ftracker.coppersurfer.tk%3A6969&amp;tr=udp%3A%2F%2Fexodus.desync.com%3A6969","seeders":1,"leechers":1,"uploader":"jaybee211","files":-1,"time":1382777808,"description":"Genre                                    : Comedy\nFiles                                    ; 8x175Mbs Approx\nFormat                                   : MPEG-4\nFormat profile                           : Base Media / Version 2\nCodec ID                                 : mp42\nFile size                                : 1.35 GiB\nDuration                                 : 2h 53mn 17s\nOverall bit rate mode                    : Variable\nOverall bit rate                         : 1 116 Kbps\n\nVideo\nID                                       : 1\nFormat                                   : AVC\nFormat/Info                              : Advanced Video Codec\nFormat profile                           : &lt;a class=&quot;__cf_email__&quot; href=&quot;/cdn-cgi/l/email-protection&quot; data-cfemail=&quot;7b33121c133b3748554b&quot;&gt;[email&amp;#160;protected]&lt;/a&gt;&lt;script cf-hash='f9e31' type=&quot;text/javascript&quot;&gt;\n/* &lt;![CDATA[ */!function(){try{var t=&quot;currentScript&quot;in document?document.currentScript:function(){for(var t=document.getElementsByTagName(&quot;script&quot;),e=t.length;e--;)if(t[e].getAttribute(&quot;cf-hash&quot;))return t[e]}();if(t&amp;&amp;t.previousSibling){var e,r,n,i,c=t.previousSibling,a=c.getAttribute(&quot;data-cfemail&quot;);if(a){for(e=&quot;&quot;,r=parseInt(a.substr(0,2),16),n=2;a.length-n;n+=2)i=parseInt(a.substr(n,2),16)^r,e+=String.fromCharCode(i);e=document.createTextNode(e),c.parentNode.replaceChild(e,c)}}}catch(u){}}();/* ]]&gt; */&lt;/script&gt;\nFormat settings, CABAC                   : Yes\nFormat settings, ReFrames                : 4 frames\nCodec ID                                 : avc1\nCodec ID/Info                            : Advanced Video Coding\nDuration                                 : 2h 53mn 17s\nBit rate mode                            : Variable\nBit rate                                 : 1 018 Kbps\nMaximum bit rate                         : 5 088 Kbps\nWidth                                    : 720 pixels\nHeight                                   : 408 pixels\nDisplay aspect ratio                     : 16:9\nFrame rate mode                          : Constant\nFrame rate                               : 25.000 fps\nStandard                                 : PAL\nColor space                              : YUV\nChroma subsampling                       : 4:2:0\nBit depth                                : 8 bits\nScan type                                : Progressive\nBits/(Pixel*Frame)                       : 0.139\nStream size                              : 1.23 GiB (91%)\n\nAudio\nID                                       : 2\nFormat                                   : AAC\nFormat/Info                              : Advanced Audio Codec\nFormat profile                           : LC\nCodec ID                                 : 40\nDuration                                 : 2h 53mn 17s\nBit rate mode                            : Variable\nBit rate                                 : 93.9 Kbps\nMaximum bit rate                         : 106.8 Kbps\nChannel(s)                               : 2 channels\nChannel positions                        : Front: L R\nSampling rate                            : 48.0 KHz\nCompression mode                         : Lossy\nStream size                              : 120 MiB (9%)\nLanguage                                 : English\n\nIMDB. &lt;a href=&quot; http://www.imdb.com/title/tt1216378/&quot; rel=&quot;nofollow&quot; target=&quot;_NEW&quot;&gt; http://www.imdb.com/title/tt1216378/&lt;/a&gt;\n\nScreens. &lt;a href=&quot; http://bayimg.com/aaboFAaFe&quot; rel=&quot;nofollow&quot; target=&quot;_NEW&quot;&gt; http://bayimg.com/aaboFAaFe&lt;/a&gt;  \n\nEnjoy.","torrent":{"xt":"urn:btih:0ce4072adecbb41e180f6e9f5239f33c2b53f7b3","amp;dn":"Fur.TV.2008.S01.x264.Iou1","amp;tr":["udp%3A%2F%2Ftracker.openbittorrent.com%3A80","udp%3A%2F%2Fopen.demonii.com%3A1337","udp%3A%2F%2Ftracker.coppersurfer.tk%3A6969","udp%3A%2F%2Fexodus.desync.com%3A6969"],"infoHash":"0ce4072adecbb41e180f6e9f5239f33c2b53f7b3","infoHashBuffer":{"type":"Buffer","data":[12,228,7,42,222,203,180,30,24,15,110,159,82,57,243,60,43,83,247,179]},"announce":[],"urlList":[]}}